<svg width="148" height="32" viewBox="0 0 148 32" fill="none" xmlns="http://www.w3.org/2000/svg">
<g id="logo">
<path id="Vector" d="M79.0366 2.69891C81.9505 2.29097 81.9505 2.29097 83.1639 3.18121C83.7695 3.89158 84.2963 4.6248 84.8197 5.3977C85.2243 5.93462 85.63 6.47074 86.0366 7.00614C86.4674 7.59372 86.897 8.18211 87.3258 8.7712C87.7986 9.41679 88.2715 10.0624 88.7444 10.7079C88.9858 11.0383 89.2273 11.3687 89.476 11.7091C90.6997 13.3828 91.9282 15.053 93.1571 16.723C93.3805 17.0275 93.6039 17.3321 93.834 17.6458C94.045 17.9327 94.256 18.2196 94.4733 18.5152C94.7489 18.8904 94.7489 18.8904 95.03 19.2733C95.7211 20.189 96.4371 21.0829 97.1571 21.976C97.1659 21.7402 97.1747 21.5044 97.1838 21.2614C97.2754 18.8161 97.3696 16.371 97.4653 13.9258C97.5008 13.0122 97.5355 12.0986 97.5696 11.1849C97.6186 9.87473 97.67 8.56468 97.7218 7.25463C97.7442 6.63777 97.7442 6.63777 97.7669 6.00845C97.7823 5.63026 97.7977 5.25206 97.8136 4.86241C97.8265 4.52766 97.8393 4.19291 97.8525 3.84801C97.9282 3.08445 97.9282 3.08445 98.3137 2.69891C99.4462 2.62662 99.4462 2.62662 100.627 2.69891C101.398 3.46999 101.398 3.46999 101.476 4.52874C101.468 4.97907 101.459 5.4294 101.45 5.89337C101.447 6.14167 101.443 6.38997 101.439 6.6458C101.426 7.46783 101.408 8.28964 101.389 9.11156C101.379 9.68095 101.369 10.2504 101.36 10.8198C101.334 12.3195 101.304 13.819 101.272 15.3186C101.241 16.8485 101.214 18.3784 101.187 19.9082C101.133 22.9108 101.074 25.9133 101.012 28.9158C100.46 28.9469 99.9062 28.969 99.3527 28.9874C98.8905 29.0074 98.8905 29.0074 98.419 29.0277C97.3447 28.8905 97.0298 28.5837 96.3408 27.7697C95.9748 27.2521 95.6209 26.7258 95.2776 26.1929C94.8805 25.6211 94.4834 25.0493 94.0863 24.4775C93.8905 24.1866 93.6948 23.8957 93.4931 23.5959C92.6381 22.3381 91.7278 21.1235 90.8197 19.9037C88.9758 17.3907 87.1527 14.8624 85.3311 12.3331C85.1306 12.0548 84.93 11.7764 84.7233 11.4896C84.5464 11.2437 84.3695 10.9979 84.1872 10.7446C83.6345 9.98486 83.0702 9.23364 82.5065 8.48204C82.3792 12.4261 82.252 16.3702 82.1209 20.4338C84.2606 20.4186 84.2606 20.4186 86.4002 20.3991C87.1586 20.3964 87.917 20.4144 88.6751 20.4338C89.0607 20.8194 89.0607 20.8194 89.1089 22.1688C89.0607 23.5182 89.0607 23.5182 88.6751 23.9037C87.9651 23.9421 87.2537 23.9542 86.5426 23.9549C86.1107 23.9554 85.6789 23.9559 85.2339 23.9564C84.7791 23.9549 84.3244 23.9535 83.8559 23.9519C83.1738 23.9542 83.1738 23.9542 82.4779 23.9564C81.83 23.9557 81.83 23.9557 81.1691 23.9549C80.7698 23.9545 80.3705 23.9541 79.959 23.9536C79.0366 23.9037 79.0366 23.9037 78.6511 23.5182C78.6098 22.422 78.5971 21.3374 78.6029 20.2411C78.604 19.7225 78.604 19.7225 78.6051 19.1934C78.6379 13.6936 78.8495 8.1951 79.0366 2.69891Z" fill="white"/>
<path id="Vector_2" d="M71.5902 4.86765C74.4048 6.88521 76.5359 9.64911 77.1082 13.1086C77.5218 17.808 77.0089 21.1448 73.9757 24.7954C71.689 27.1992 68.9279 28.7293 65.6007 29.0077C61.5884 29.1003 58.1989 28.3228 55.048 25.7336C52.2491 22.9899 51.0397 19.6863 50.8281 15.8029C50.9528 12.1341 52.3906 8.85889 54.8914 6.16885C59.6221 1.88615 66.2436 1.60536 71.5902 4.86765ZM55.9742 10.0725C54.4463 12.4929 53.9829 14.8934 54.3613 17.7351C55.1934 21.0488 56.8913 23.2628 59.807 25.0122C62.5912 26.1017 65.2969 26.1559 68.1098 25.1222C70.5345 23.9199 72.3719 22.1686 73.4697 19.6869C74.5004 16.5948 74.2826 13.7336 72.8673 10.7954C71.422 8.41998 69.3366 6.99254 66.6986 6.16885C62.4408 5.52627 58.6419 6.56599 55.9742 10.0725Z" fill="white"/>
<path id="Vector_3" d="M123.374 2.69873C124.519 2.69873 125.664 2.69873 126.843 2.69873C128.233 6.09481 129.622 9.4909 131.011 12.887C131.238 13.44 131.238 13.44 131.468 14.0042C131.774 14.7515 132.08 15.4988 132.385 16.2462C133.182 18.1963 133.982 20.145 134.788 22.0914C134.949 22.4819 135.11 22.8725 135.276 23.2748C135.585 24.0234 135.895 24.7715 136.207 25.5192C136.344 25.853 136.482 26.1867 136.624 26.5306C136.806 26.9715 136.806 26.9715 136.993 27.4214C137.253 28.1445 137.253 28.1445 137.253 28.9156C135.981 28.9156 134.708 28.9156 133.398 28.9156C130.556 22.1531 127.815 15.3746 125.301 8.48186C124.679 9.41494 124.288 10.1496 123.882 11.1732C123.76 11.4794 123.638 11.7856 123.512 12.101C123.382 12.43 123.253 12.7589 123.119 13.0978C122.984 13.4367 122.849 13.7755 122.71 14.1246C122.279 15.207 121.85 16.2902 121.422 17.3734C120.991 18.4579 120.56 19.5422 120.129 20.6264C119.861 21.3011 119.593 21.9761 119.326 22.6512C119.144 23.1086 119.144 23.1086 118.959 23.5753C118.853 23.8441 118.746 24.1129 118.637 24.3898C118.361 25.0602 118.361 25.0602 117.976 25.8313C122.047 25.8313 126.119 25.8313 130.313 25.8313C130.313 26.8491 130.313 27.8669 130.313 28.9156C124.588 28.9156 118.863 28.9156 112.964 28.9156C113.689 26.4991 114.397 24.2434 115.377 21.9457C115.494 21.6657 115.612 21.3856 115.733 21.0971C116.109 20.2005 116.488 19.305 116.867 18.4096C117.258 17.481 117.648 16.5522 118.038 15.6234C118.296 15.0092 118.554 14.3951 118.812 13.7811C119.891 11.2178 120.951 8.64745 122 6.07222C122.214 5.54647 122.214 5.54647 122.433 5.0101C122.747 4.23981 123.06 3.4693 123.374 2.69873Z" fill="white"/>
<path id="Vector_4" d="M30.4576 2.69866C32.1925 2.66486 33.9273 2.64444 35.6625 2.62637C36.396 2.61183 36.396 2.61183 37.1444 2.597C42.7734 2.55303 42.7734 2.55303 45.2016 4.57517C45.4094 4.83062 45.6171 5.08607 45.8311 5.34926C46.1517 5.72946 46.1517 5.72946 46.4787 6.11733C47.9844 8.33928 48.0936 10.4959 47.807 13.1083C47.113 15.6342 45.3411 17.4718 43.1805 18.8914C42.7988 18.8914 42.4172 18.8914 42.0239 18.8914C42.1874 19.1677 42.3509 19.444 42.5194 19.7286C43.2556 20.9746 43.9892 22.2222 44.7227 23.4697C44.9801 23.9046 45.2376 24.3395 45.5028 24.7875C45.7463 25.2025 45.9899 25.6175 46.2408 26.045C46.58 26.6205 46.58 26.6205 46.926 27.2075C47.4215 28.1444 47.4215 28.1444 47.4215 28.9155C46.0001 29.351 44.976 29.422 43.5661 28.9155C41.7034 26.9622 40.464 24.2688 39.2753 21.8673C38.8312 21.0409 38.4219 20.3502 37.7829 19.6625C36.5782 19.3429 35.9579 19.2438 34.7709 19.277C33.8564 19.277 32.942 19.277 31.9998 19.277C31.9998 22.4577 31.9998 25.6384 31.9998 28.9155C30.982 28.9155 29.9641 28.9155 28.9155 28.9155C28.1797 28.1797 28.4796 26.8665 28.4787 25.8914C28.4784 25.6276 28.478 25.3638 28.4776 25.092C28.4773 24.5332 28.4781 23.9745 28.4797 23.4157C28.4817 22.5577 28.4797 21.6998 28.4772 20.8417C28.4775 20.3001 28.478 19.7584 28.4787 19.2167C28.4792 18.7205 28.4796 18.2242 28.48 17.713C28.5299 16.5782 28.5299 16.5782 28.9155 16.1926C29.7107 16.1456 30.5075 16.1233 31.304 16.1113C31.795 16.1004 32.2861 16.0894 32.792 16.0782C33.5736 16.0624 34.3551 16.0481 35.1369 16.0379C39.1362 16.0422 39.1362 16.0422 42.795 14.6505C44.0403 13.2846 44.171 11.8969 44.1173 10.1098C43.8336 8.64237 43.094 7.95872 42.0239 6.93962C40.9478 6.40156 40.0183 6.47 38.8161 6.43209C38.3315 6.41594 37.8469 6.39979 37.3477 6.38315C36.8393 6.36799 36.3309 6.35283 35.807 6.33721C35.2905 6.32056 34.7739 6.30375 34.2573 6.28676C32.9908 6.24576 31.7243 6.20642 30.4576 6.16854C30.4576 5.02348 30.4576 3.87842 30.4576 2.69866Z" fill="white"/>
<path id="Vector_5" d="M22.2171 4.69879C22.5193 4.92939 22.8214 5.15999 23.1328 5.39758C22.8965 6.53946 22.6494 7.08648 21.9761 8.09638C20.7944 7.91733 19.9422 7.65663 18.8677 7.10843C16.5796 6.10863 14.0076 6.14887 11.6493 6.89306C9.15144 8.03463 7.3293 9.51904 6.15836 12.0301C5.13676 14.7983 5.14098 17.1989 6.15534 19.9684C7.22382 22.2464 8.83335 23.7744 11.1312 24.7816C14.0684 25.7786 16.4217 25.4087 19.2773 24.2891C19.5522 24.1485 19.827 24.0079 20.1102 23.8629C20.8195 23.5181 20.8195 23.5181 21.6388 23.5181C22.3617 23.9036 22.3617 23.9036 22.8436 25.0843C22.939 25.4581 23.0344 25.8318 23.1328 26.2169C20.3944 28.7786 17.3257 29.147 13.684 29.0452C9.70277 28.6622 6.8419 26.9214 4.24119 23.9036C2.03469 20.3935 1.63562 17.1844 1.92793 13.1084C2.7114 9.75069 4.62883 6.89647 7.42191 4.89156C11.9814 2.08864 17.6301 1.67311 22.2171 4.69879Z" fill="white"/>
<path id="Vector_6" d="M138.795 2.69873C139.94 2.69873 141.085 2.69873 142.265 2.69873C142.265 11.3503 142.265 20.0019 142.265 28.9156C140.993 28.9156 139.72 28.9156 138.41 28.9156C138.401 25.5543 138.394 22.1929 138.39 18.8316C138.388 17.271 138.385 15.7103 138.381 14.1497C138.376 12.6448 138.374 11.1399 138.373 9.63505C138.372 9.05966 138.371 8.48427 138.369 7.90889C138.366 7.10568 138.366 6.3025 138.366 5.49928C138.365 5.04124 138.364 4.58321 138.363 4.11129C138.41 3.08427 138.41 3.08427 138.795 2.69873Z" fill="white"/>
<path id="Vector_7" d="M81.0095 25.3923C81.2846 25.3931 81.5597 25.3939 81.8432 25.3947C82.1241 25.3943 82.405 25.3939 82.6945 25.3935C83.2896 25.3933 83.8846 25.394 84.4797 25.3956C85.3935 25.3977 86.3073 25.3956 87.2212 25.3932C87.798 25.3934 88.3748 25.3939 88.9516 25.3947C89.2267 25.3939 89.5018 25.3931 89.7852 25.3923C91.7145 25.4016 91.7145 25.4016 92.1444 25.8314C92.1926 27.1808 92.1926 27.1808 92.1444 28.5302C91.4871 29.1875 90.6618 28.9651 89.7852 28.9693C89.5101 28.9685 89.235 28.9678 88.9516 28.967C88.6707 28.9673 88.3897 28.9677 88.1003 28.9681C87.5052 28.9683 86.9102 28.9676 86.3151 28.966C85.4013 28.964 84.4875 28.966 83.5736 28.9685C82.9968 28.9682 82.42 28.9677 81.8432 28.967C81.4305 28.9681 81.4305 28.9681 81.0095 28.9693C79.0803 28.9601 79.0803 28.9601 78.6504 28.5302C78.6022 27.1808 78.6022 27.1808 78.6504 25.8314C79.3077 25.1741 80.1329 25.3965 81.0095 25.3923Z" fill="white"/>
</g>
</svg>
