<svg width="24" height="24" viewBox="0 0 24 24" fill="none" xmlns="http://www.w3.org/2000/svg">
<g id="mage:facebook">
<path id="Vector" d="M9.60244 21.0259V13.7519H6.81844C6.67389 13.7519 6.53527 13.6945 6.43306 13.5923C6.33086 13.4901 6.27344 13.3515 6.27344 13.2069V10.3299C6.27344 10.1854 6.33086 10.0468 6.43306 9.94458C6.53527 9.84237 6.67389 9.78495 6.81844 9.78495H9.59144V6.99995C9.5251 6.3395 9.60417 5.67254 9.82309 5.04591C10.042 4.41927 10.3955 3.84817 10.8586 3.37271C11.3218 2.89724 11.8834 2.52895 12.5041 2.2937C13.1248 2.05844 13.7895 1.96193 14.4514 2.01095H16.7714C16.9174 2.01066 17.0575 2.06775 17.1617 2.1699C17.2659 2.27204 17.3258 2.41106 17.3284 2.55695V4.99295C17.3253 5.13859 17.2652 5.2772 17.1611 5.37907C17.057 5.48095 16.9171 5.53798 16.7714 5.53795H15.3214C13.7554 5.53795 13.4544 6.27995 13.4544 7.37095V9.78395H17.1774C17.2548 9.78139 17.3318 9.79571 17.4031 9.82592C17.4744 9.85614 17.5382 9.90152 17.5902 9.95891C17.6422 10.0163 17.681 10.0843 17.704 10.1582C17.727 10.2322 17.7336 10.3102 17.7234 10.3869L17.3864 13.2749C17.3696 13.4072 17.3048 13.5287 17.2043 13.6164C17.1039 13.7042 16.9748 13.752 16.8414 13.7509H13.4774V21.025C13.4791 21.1534 13.4549 21.2809 13.4065 21.3998C13.358 21.5188 13.2863 21.6268 13.1954 21.7176C13.1045 21.8084 12.9964 21.8801 12.8774 21.9284C12.7584 21.9767 12.6309 22.0007 12.5024 21.999H10.5654C10.438 21.9992 10.3117 21.9741 10.194 21.9252C10.0764 21.8762 9.96959 21.8043 9.87997 21.7136C9.79035 21.623 9.71966 21.5154 9.67201 21.3972C9.62436 21.2789 9.60071 21.1534 9.60244 21.0259Z" fill="white"/>
</g>
</svg>
